<svg id="Layer_6" data-name="Layer 6" xmlns="http://www.w3.org/2000/svg" viewBox="0 0 188.45 188.46"><defs><style>.cls-1{fill:#231f20;}.cls-2{fill:#fff;}</style></defs><title>canilla</title><path class="cls-1" d="M386.86,216.75A94.23,94.23,0,1,0,481.09,311,94.23,94.23,0,0,0,386.86,216.75Z" transform="translate(-292.64 -216.75)"/><path class="cls-2" d="M399.67,252.76a7.84,7.84,0,0,1,5.81,6.35,7.58,7.58,0,0,1-7.08,8.66,60.86,60.86,0,0,1-11.33-1.34c-1.37-.23-1.37-.27-1.37,1.1,0,1.17.07,2.34,0,3.5s.28,1.61,1.49,1.53a12.07,12.07,0,0,1,7.35,1.85,12.27,12.27,0,0,1,5.44,6.91,1.53,1.53,0,0,0,1.81,1.28c2.22-.07,4.44,0,6.66,0a27.46,27.46,0,0,1,26.63,22.93,49.38,49.38,0,0,1,.42,7.68q0,5.54,0,11.09c0,2.38-.94,3.3-3.33,3.3H413.45c-2.23,0-3.11-.88-3.11-3.1,0-2.85,0-5.69,0-8.53,0-5.55-3.86-8.88-9.37-8.25-.78.09-.79.64-1,1.12a12.56,12.56,0,0,1-9.5,8.59,8.65,8.65,0,0,1-2,.27c-4,0-8,.34-12-.15-5.21-.63-8.64-3.66-10.41-8.51a1.68,1.68,0,0,0-1.92-1.32c-6.69,0-13.39,0-20.09,0-2.66,0-3.6-.93-3.6-3.56q0-9.06,0-18.1c0-2.62.87-3.48,3.51-3.49,6.77,0,13.55,0,20.32,0a1.47,1.47,0,0,0,1.71-1.24,12.67,12.67,0,0,1,12.07-8.81c2.62,0,2.29.34,2.31-2.28,0-1.05,0-2.1,0-3.15,0-.78-.26-.92-1-.77-2.93.59-5.9,1-8.87,1.34-3.13.37-6.07.11-8.31-2.53a7.58,7.58,0,0,1,3.12-12c.29-.11.57-.24.86-.36h4.67c3.56.57,7.14,1,10.65,1.81a4,4,0,0,0,1.84.2c3.9-.9,7.85-1.46,11.8-2Zm-28.9,42.32c0,3.42,0,6.84,0,10.27a7.1,7.1,0,0,0,6.21,6.91,68.53,68.53,0,0,0,10.72.16c4.72-.17,7.58-3.12,7.66-7.82.1-6.3.08-12.6,0-18.9-.06-4.57-3.06-7.77-7.24-7.86q-5.13-.1-10.27,0a7.21,7.21,0,0,0-7.08,7.32C370.76,288.47,370.77,291.77,370.77,295.08Zm59.43,19.5c-.12-2.09.13-4.66-.19-7.23a22.3,22.3,0,0,0-17.42-19.05c-3.47-.76-7-.33-10.47-.48-1.09-.05-1.5.27-1.48,1.43.07,3.5,0,7,0,10.5,0,2.65,0,2.65,2.62,2.7a12.72,12.72,0,0,1,12.12,10.92,70.21,70.21,0,0,1,.17,7.81c0,.86.31,1.16,1.16,1.15,4.13,0,8.26,0,12.38,0,.81,0,1.11-.29,1.09-1.09C430.17,319.17,430.2,317.11,430.2,314.58Zm-74.68-12.14c2.88,0,5.76,0,8.64,0,1,0,1.36-.26,1.35-1.31q-.09-6,0-12c0-1.05-.36-1.32-1.35-1.31q-8.54,0-17.05,0c-1,0-1.36.27-1.35,1.31q.08,6,0,12c0,1.06.37,1.32,1.36,1.3C349.92,302.4,352.72,302.44,355.52,302.44Zm28.58-42.19a60.7,60.7,0,0,0,13.95,2.24,2.27,2.27,0,0,0,2.23-2.25A2.35,2.35,0,0,0,398,258a29.16,29.16,0,0,0-5.2.48A48.16,48.16,0,0,0,384.1,260.25Zm-1.94,0c-2.26-.91-11.1-2.37-13.91-2.33a2.28,2.28,0,1,0,0,4.56,31.91,31.91,0,0,0,5.08-.5A63.14,63.14,0,0,0,382.16,260.28Z" transform="translate(-292.64 -216.75)"/><path class="cls-2" d="M423.06,372.43a12.43,12.43,0,0,1-12.67-13.55c.28-2.82,1.56-5.36,2.81-7.88a99,99,0,0,1,7.24-12.12c1.37-2,3.51-2,4.87,0a93.34,93.34,0,0,1,8.28,14.34,23,23,0,0,1,1.63,4.73c1.26,6.28-3.13,12.76-9.57,14.21A9.76,9.76,0,0,1,423.06,372.43Zm-.15-5.27a11.32,11.32,0,0,0,1.67-.16,7.2,7.2,0,0,0,5-9.66,82.28,82.28,0,0,0-6.27-11.85c-.3-.49-.55-.63-.9-.06-2.38,4-4.9,7.89-6.4,12.3A7.09,7.09,0,0,0,422.91,367.16Z" transform="translate(-292.64 -216.75)"/></svg>