<svg id="Layer_7" data-name="Layer 7" xmlns="http://www.w3.org/2000/svg" viewBox="0 0 188.45 188.46"><defs><style>.cls-1{fill:#231f20;}.cls-2{fill:#fff;}</style></defs><title>carretilla</title><path class="cls-1" d="M386.86,216.69a94.23,94.23,0,1,0,94.23,94.22A94.23,94.23,0,0,0,386.86,216.69Z" transform="translate(-292.64 -216.69)"/><path class="cls-2" d="M375.26,288.26h40.22c.42,0,.84,0,1.26,0s.63.31.38.74c-2.38,4.13-4.41,8.45-6.9,12.52-1,1.71-1.93,3.51-2.8,5.32a8.46,8.46,0,0,1-6.05,4.8c-4.38,1.06-8.7,2.35-13.05,3.55-4.59,1.25-9.16,2.6-13.78,3.73-3.33.81-6.52,2.14-10,2.53a7.08,7.08,0,0,1-6.15-2.17c-2.66-2.82-4.95-6-7.46-8.92-3.29-3.9-6.51-7.85-9.8-11.75-2.55-3-5.07-6.11-7.6-9.17-.22-.27-.62-.59-.35-1s.77-.23,1.18-.23h40.85Z" transform="translate(-292.64 -216.69)"/><path class="cls-2" d="M402.66,346.78a2.78,2.78,0,0,0-.5,0c-3.56.73-5.54-1.49-7.46-3.91-.88-1.11-1.84-2.17-2.81-3.17-3.8-3.89-7.32-8-11-12-2.34-2.5-2.6-2.59-5.84-1.45-4.14,1.46-8.4,2.53-12.64,3.65-1.06.28-1.42.55-1.31,1.8a13.89,13.89,0,0,1-10.6,14.63A14.73,14.73,0,0,1,339.92,345a13.15,13.15,0,0,1-5.69-6c-.4-.86-.82-1-1.63-.6-1.58.68-2.62.47-3.38-.55a1.91,1.91,0,0,1,.79-3.07,2.64,2.64,0,0,1,.47-.17c2.27-.64,2.19-.65,2.32-2.95a14,14,0,0,1,8.72-12.16,14.46,14.46,0,0,1,11.57.28,13.55,13.55,0,0,1,6.27,5.91c.37.66.66.78,1.35.56,4.46-1.41,9-2.54,13.5-3.84,3.69-1.07,7.4-2.08,11.08-3.17,6.45-1.89,12.93-3.69,19.42-5.45a6.93,6.93,0,0,0,4.53-3.66c2.61-4.91,5.23-9.82,8-14.67.95-1.68,1.76-3.42,2.72-5.08a10,10,0,0,1,5.9-4.75c4.6-1.41,9.25-2.61,13.91-3.78,1.7-.43,3.36-1,5.06-1.43a2.24,2.24,0,0,1,2.48,1,2,2,0,0,1-.27,2.34,2.11,2.11,0,0,1-1.28.75c-3.6,1-7.21,1.84-10.79,2.84-2.66.73-5.34,1.38-8,2.16-2.17.63-3.4,2.54-4.37,4.46-2.08,4.11-4.28,8.15-6.54,12.16a41.27,41.27,0,0,0-2.36,4.7A10.1,10.1,0,0,0,413,314c-.26,5-1.17,9.94-1.65,14.93-.46,4.81-1.13,9.6-1.74,14.39a4.15,4.15,0,0,1-3.81,3.42c-1.05,0-2.1,0-3.15,0Zm-.39-4.2a17.38,17.38,0,0,1,1.81,0c1.2.15,1.58-.54,1.61-1.53.13-4.69,1.06-9.28,1.47-13.93.27-3,.71-6,1.07-9.06.1-.82-.05-1.11-1-.82-4.11,1.24-8.25,2.39-12.38,3.56l-10.25,2.88c-.71.2-1.19.33-.43,1.17,4.85,5.31,9.71,10.62,14.46,16C399.75,342.17,400.84,343,402.27,342.58Zm-55.12-4c2.5,0,5.47-2.6,5.73-4.9.08-.67-.12-.93-.83-.72-3.09.89-6.18,1.78-9.27,2.65-.67.19-.66.45-.26.95A6.26,6.26,0,0,0,347.15,338.55Zm4-10.2a3.62,3.62,0,0,1-.41-.3,4.84,4.84,0,0,0-3.31-1.31,5.62,5.62,0,0,0-6,3.69c-.3.75-.12,1.13.8.87,2.8-.8,5.62-1.56,8.43-2.35C350.82,328.89,351.12,328.86,351.13,328.35Z" transform="translate(-292.64 -216.69)"/></svg>