<svg id="Layer_1" data-name="Layer 1" xmlns="http://www.w3.org/2000/svg" viewBox="0 0 218 190.88"><defs><style>.cls-1{fill:#9c0;}.cls-1,.cls-2,.cls-3{fill-rule:evenodd;}.cls-2,.cls-4{fill:#231f20;}.cls-3{fill:#fff;}</style></defs><title>carrito</title><path class="cls-1" d="M435.5,376l29-96h38l-8,22h-15l-30,95h-126l-6-21Zm-104-70.11c0-12.16,0-21.95,0-21.95l-47,.06,6.38,21.75Zm0,24.1v22l-27,.19L298,329.86Z" transform="translate(-284.5 -234.09)"/><path class="cls-2" d="M345.5,240l12,11-13,14-14-13s-1.71,1.29-2,5c-.61,7.85,2.7,21.58,25,22a2.61,2.61,0,0,1,2,1c8.76,9.08,47,52,47,52-6.19,17.09,13.36,33.38,28,18.85,13.75-13.63,1.24-34.15-17.14-30.85l-42.9-51s-.08-1.91,0-3c1.09-15.7-7.31-29.19-18.87-28.95A7.63,7.63,0,0,0,345.5,240Z" transform="translate(-284.5 -234.09)"/><path class="cls-2" d="M399.28,234.09c-2.39,1-17.68,16-15.78,17.91,1.5,1.51,10.93,10.61,13.29,9,.54-.37,2.53-4.43,5.71-8s7.7-7,8-8-1.92-4.31-5-7A26.36,26.36,0,0,0,399.28,234.09Z" transform="translate(-284.5 -234.09)"/><path class="cls-2" d="M413.5,247c-.62,0-11.59,7.39-14,16-.56,2,6.75,2.93,3,11a27.59,27.59,0,0,0-2,5s11.75,14,13,14h5s2.46-4.48,6-5c2.55-.37,6,1.76,8,7,2.22,5.75,4.44,12.83,4,14s4.67,4.1,6,0c.89-2.74,4.61-9.26,5-13,.24-2.36-1.72-22.69-7-29C430.15,254.65,413.86,247,413.5,247Z" transform="translate(-284.5 -234.09)"/><path class="cls-2" d="M397.5,281l13,14s1.59,5.18-7,10c-3.6,2-23.88,36.32-36,48-5.32,5.13-26.49-10-24-16C346.08,330.75,397.5,281,397.5,281Z" transform="translate(-284.5 -234.09)"/><path class="cls-3" d="M418.5,329c-2.42,0-9,1-9,8s4.39,10,9,10,9-2.27,9-9.69S420.92,329,418.5,329Z" transform="translate(-284.5 -234.09)"/><ellipse class="cls-4" cx="77.84" cy="180.33" rx="11.33" ry="10.55"/><ellipse class="cls-4" cx="125" cy="180.33" rx="11.33" ry="10.55"/></svg>