<svg id="Layer_5" data-name="Layer 5" xmlns="http://www.w3.org/2000/svg" viewBox="0 0 188.45 188.46"><defs><style>.cls-1{fill:#231f20;}.cls-2{fill:#fff;}</style></defs><title>inodoro</title><path class="cls-1" d="M387,217.91a94.23,94.23,0,1,0,94.23,94.23A94.23,94.23,0,0,0,387,217.91Z" transform="translate(-292.8 -217.91)"/><path class="cls-2" d="M378.9,252.43c6.67,1.53,10.58,6,12.92,12.13A41.28,41.28,0,0,1,394,275.19a83.41,83.41,0,0,1-.13,11.94,111.08,111.08,0,0,1-1.75,15.63c-.18.94,0,1.34,1.13,1.33a66.71,66.71,0,0,1,22,3.49c4.14,1.39,8,3.26,11,6.6,2.77,3.08,3.79,6.56,2.39,10.58a2.07,2.07,0,0,1-.31.74c-1.65,1.72-1.83,4-2.5,6.13a25.61,25.61,0,0,1-5.86,9.89,23.22,23.22,0,0,1-6.4,4.92c-1.64.83-1.63.85-1.15,2.53a148.15,148.15,0,0,1,3.37,14.55c.34,1.89-.72,3.11-2.13,4.05a25.08,25.08,0,0,1-9.5,3.5,60.14,60.14,0,0,1-14.24.65,34.37,34.37,0,0,1-18.48-6,21.61,21.61,0,0,1-3.2-2.85c-1.05-1.1-.92-2.44-.67-3.72,1-4.93,1.94-9.84,3-14.75a1.22,1.22,0,0,0-.58-1.43,33.5,33.5,0,0,1-7.79-8.06A32.83,32.83,0,0,1,356.46,321a10.35,10.35,0,0,1-.24-2.42,1.31,1.31,0,0,0-.58-1.08c-5.78-5.49-8.56-12.44-9.93-20.12a52.82,52.82,0,0,1-.86-10.25c.15-7.21,1.26-14.24,4.84-20.66,3.74-6.71,8.93-11.69,16.56-13.71C366.81,252.53,375.05,251.63,378.9,252.43Zm-17.29,8.13a21.11,21.11,0,0,0-6,6.11c-3.61,5.3-5.05,11.33-5.48,17.6a47.5,47.5,0,0,0,.9,13.5c1.24,5.59,3.17,10.86,7.37,15a17.22,17.22,0,0,1,3,6c1,4,1.73,8,3.95,11.5a31.42,31.42,0,0,0,14.82,12.68A37.7,37.7,0,0,0,401,345.3c6.47-1,12.11-3.64,16.32-8.83a15.52,15.52,0,0,0,2.83-4.89,5.8,5.8,0,0,0-.59.13,59.71,59.71,0,0,1-15.45,2.76,46.85,46.85,0,0,1-13.15-1,59,59,0,0,1-18.64-6.8,26.81,26.81,0,0,1-8.52-7.37,98,98,0,0,1-6.91-12.84,47.37,47.37,0,0,1-3.65-14.77,54.51,54.51,0,0,1,.62-13.19A39.17,39.17,0,0,1,361.61,260.56Zm27.23,19.35a37.55,37.55,0,0,0-.95-10.25c-1-4-2.5-7.78-6-10.27-2.5-1.76-5.23-2.58-8.31-1.41a17.4,17.4,0,0,0-5.63,3.59,27.45,27.45,0,0,0-7.36,11.92,44.35,44.35,0,0,0-1.88,19.42c.88,7,3.52,13.33,6.91,19.42.39.71.77.82,1.45.54q9.34-3.8,18.7-7.56a1.1,1.1,0,0,0,.79-1c.43-2.63.83-5.25,1.17-7.89A138.51,138.51,0,0,0,388.84,279.91Zm4.66,86.82a57.37,57.37,0,0,0,8-.53,25.6,25.6,0,0,0,7.9-2.14,1.41,1.41,0,0,0,.87-1.77q-1.23-6.14-2.94-12.14c-.2-.69-.47-.82-1.16-.64a50.54,50.54,0,0,1-8.31,1.36,63.37,63.37,0,0,1-6.47-.06,25.09,25.09,0,0,1-5.05-.62,36.27,36.27,0,0,1-10-3.32c-.66-.37-1-.29-1.15.58q-1.11,5.79-2.37,11.55a1.31,1.31,0,0,0,.41,1.44,19.74,19.74,0,0,0,4.12,2.78C382.42,365.81,387.88,366.65,393.5,366.73Zm-1.56-57.66a7.93,7.93,0,0,0-3.48.75c-6,2.49-12.1,4.9-18.15,7.35-1.21.48-1.24.54-.21,1.44a32.43,32.43,0,0,0,8.35,5.36c7.7,3.43,15.66,5.57,24.19,5.28a64.7,64.7,0,0,0,9.43-1,28.37,28.37,0,0,0,9-2.92c3.3-1.85,3.87-4.38,1.51-7.34a16.35,16.35,0,0,0-7.06-4.7C408.18,310.35,400.48,309.33,391.94,309.07Z" transform="translate(-292.8 -217.91)"/><path class="cls-2" d="M382.19,318.53c-.26-2.25,1.82-4.22,4.31-5.24a27.19,27.19,0,0,1,8.33-1.77,38.31,38.31,0,0,1,15.95,2c2.19.75,4.38,1.7,5.76,3.73,1.77,2.61,1.18,5.36-1.45,7.15a19.5,19.5,0,0,1-7.84,2.67,22.84,22.84,0,0,1-4.42.35c-5.61-.14-11.23-.49-16.37-3.14a9.09,9.09,0,0,1-3.66-3.13A4,4,0,0,1,382.19,318.53Zm15.73-2.36c-.93,0-1.67,0-2.42,0a20.69,20.69,0,0,0-7.19,1.51c-.46.19-1.14.39-1.16.95s.59.83,1.06,1.08a18.6,18.6,0,0,0,4,1.64,35.53,35.53,0,0,0,15.28.8,11.28,11.28,0,0,0,4.66-1.61c.62-.44.57-.61,0-1a10.8,10.8,0,0,0-3-1.56A30.64,30.64,0,0,0,397.92,316.17Z" transform="translate(-292.8 -217.91)"/></svg>