<svg id="Layer_3" data-name="Layer 3" xmlns="http://www.w3.org/2000/svg" viewBox="0 0 188.45 188.46"><defs><style>.cls-1{fill:#231f20;}.cls-2,.cls-3{fill:#fff;}.cls-3{stroke:#000;stroke-miterlimit:10;stroke-width:0.25px;}</style></defs><title>lampara</title><path class="cls-1" d="M388.72,217.5A94.23,94.23,0,1,0,483,311.73,94.23,94.23,0,0,0,388.72,217.5Z" transform="translate(-294.5 -217.5)"/><path class="cls-2" d="M389,372.58c2.17,0,6.12-1.79,6.49-3.85H389Z" transform="translate(-294.5 -217.5)"/><path class="cls-2" d="M389.46,372.58c-2.18,0-6.12-1.79-6.49-3.85h6.49Z" transform="translate(-294.5 -217.5)"/><path class="cls-2" d="M398.59,360.73c-3.25,0-15.82,0-18.85,0a2.88,2.88,0,0,0-2.23.81,1.87,1.87,0,0,0-.54,2.25,1.66,1.66,0,0,0,1.82,1.17c3.51-.06,16.59,0,19.62,0,.62,0,1.29.15,1.85-.42s1.07-1.34.65-2.21A2.5,2.5,0,0,0,398.59,360.73Z" transform="translate(-294.5 -217.5)"/><path class="cls-3" d="M402.45,351.71q-13.45,0-26.9,0a2.54,2.54,0,0,0-2.64,2.51,2.43,2.43,0,0,0,2.41,2.78c4.56.06,24.5.16,27.14.07a2.63,2.63,0,0,0,2.46-3A2.69,2.69,0,0,0,402.45,351.71Z" transform="translate(-294.5 -217.5)"/><path class="cls-2" d="M352.41,282.47a37.5,37.5,0,0,1,7-14.41,38.25,38.25,0,0,1,8.54-8,37.46,37.46,0,0,1,8.49-4.47,31.88,31.88,0,0,1,9.76-2.11l3-.09v92.74l-8.88,0c-.29,0-.62.05-.83-.25-2.41.05-4.39-1.17-6.14-2.52a11.79,11.79,0,0,1-4.34-9c-.12-1.89.11-3.81-.61-5.64a32.19,32.19,0,0,0-1.86-4.83,30.8,30.8,0,0,0-4.62-5.77,38,38,0,0,1-10.75-26.1A39.21,39.21,0,0,1,352.41,282.47Z" transform="translate(-294.5 -217.5)"/><path class="cls-2" d="M426.1,282.47a37.5,37.5,0,0,0-7-14.41,38.25,38.25,0,0,0-8.54-8,37.46,37.46,0,0,0-8.49-4.47,31.88,31.88,0,0,0-9.76-2.11c-1,0-2-.07-3-.09v92.74l8.88,0c.29,0,.62.05.83-.25,2.41.05,4.39-1.17,6.14-2.52a11.79,11.79,0,0,0,4.34-9c.12-1.89-.11-3.81.61-5.64A32.19,32.19,0,0,1,411.9,324a30.8,30.8,0,0,1,4.62-5.77,38,38,0,0,0,10.75-26.1A39.21,39.21,0,0,0,426.1,282.47Z" transform="translate(-294.5 -217.5)"/></svg>