<svg id="martillo" xmlns="http://www.w3.org/2000/svg" viewBox="0 0 188.45 188.46"><defs><style>.cls-1{fill:#231f20;}.cls-2{fill:#fff;fill-rule:evenodd;}</style></defs><title>martillo</title><path class="cls-1" d="M388.72,218.5A94.23,94.23,0,1,0,483,312.73,94.23,94.23,0,0,0,388.72,218.5Z" transform="translate(-294.5 -218.5)"/><path class="cls-2" d="M392.5,252.76c-2.33,1-17.23,16-15.38,17.91,1.46,1.5,10.65,10.6,12.95,9,.53-.38,2.47-4.44,5.57-8,3.22-3.7,7.5-7,7.79-8s-1.86-4.32-4.87-7A25.06,25.06,0,0,0,392.5,252.76Z" transform="translate(-294.5 -218.5)"/><path class="cls-2" d="M406.36,265.67c-.6,0-11.29,7.39-13.65,16-.54,2,6.58,2.93,2.93,11a27.12,27.12,0,0,0-1.95,5s11.45,14,12.67,14h4.87s2.4-4.49,5.85-5c2.49-.38,5.82,1.76,7.79,7,2.17,5.74,4.33,12.83,3.9,14s4.55,4.09,5.85,0c.87-2.75,4.49-9.26,4.87-13,.24-2.36-1.67-22.7-6.82-29C422.59,273.31,406.7,265.67,406.36,265.67Z" transform="translate(-294.5 -218.5)"/><path class="cls-2" d="M390.76,299.67l12.67,14s1.55,5.17-6.82,10c-3.5,2-23.27,36.32-35.08,48-5.19,5.12-25.82-10-23.39-16C340.65,349.42,390.76,299.67,390.76,299.67Z" transform="translate(-294.5 -218.5)"/></svg>